<?xml version="1.0" encoding="UTF-8"?><svg id="_レイヤー_2" xmlns="http://www.w3.org/2000/svg" viewBox="0 0 200 232.48"><defs><style>.cls-1,.cls-2{fill:#fff;}.cls-2{stroke:#000;stroke-miterlimit:10;}</style></defs><g id="_レイヤー_1-2"><g id="Robot"><g><rect class="cls-1" x="36.04" y=".5" width="128.61" height="117.79"/><path d="M164.15,1V117.79H36.54V1h127.61m1-1H35.54V118.79H165.15V0h0Z"/></g><path class="cls-2" d="M29.89,86.67c-11.62,0-21.04-12.28-21.04-27.44s9.42-27.44,21.04-27.44v54.87Z"/><g><polygon class="cls-1" points="56.83 186.33 36.23 123.81 164.44 123.81 142.49 186.33 56.83 186.33"/><path d="M163.74,124.31l-21.6,61.52H57.19l-20.27-61.52h126.81m1.41-1H35.54l20.93,63.52h86.38l22.3-63.52h0Z"/></g><path class="cls-2" d="M169.47,31.8c11.62,0,21.04,12.28,21.04,27.44s-9.42,27.44-21.04,27.44V31.8Z"/><g><rect class="cls-1" x="59.83" y="192.25" width="31.23" height="19.42"/><path d="M90.57,192.75v18.42h-30.23v-18.42h30.23m1-1H59.33v20.42h32.23v-20.42h0Z"/></g><g><rect class="cls-1" x="56.62" y="215.84" width="37.66" height="16.03"/><path d="M93.78,216.34v15.03H57.12v-15.03h36.66m1-1H56.12v17.03h38.66v-17.03h0Z"/></g><g><rect class="cls-1" x="109.56" y="192.37" width="31.23" height="19.42"/><path d="M140.29,192.87v18.42h-30.23v-18.42h30.23m1-1h-32.23v20.42h32.23v-20.42h0Z"/></g><g><rect class="cls-1" x="106.35" y="215.95" width="37.66" height="16.03"/><path d="M143.51,216.45v15.03h-36.66v-15.03h36.66m1-1h-38.66v17.03h38.66v-17.03h0Z"/></g><g id="_左腕"><path class="cls-2" d="M194.57,165.1l-14.46,.23c.12,1.35,.12,2.48,.07,3.33-7.96,1.26-14.05,8.16-14.05,16.47,0,.85,.06,1.69,.19,2.51h9.8c-.29-.78-.45-1.63-.45-2.51,0-3.95,3.2-7.15,7.15-7.15s7.15,3.2,7.15,7.15c0,2.24-1.03,4.24-2.65,5.55h0s6.9,6.62,6.9,6.62c3.25-3.04,5.28-7.37,5.28-12.17s-1.89-8.83-4.95-11.85c.13-2.89,.13-5.61,.02-8.17Z"/><path class="cls-2" d="M181.94,131.14c-4.76-4.81-9.04-6.26-9.04-6.26l-6.88,16.12c1.91,1.62,3.56,3.25,4.99,4.86l10.92-14.72Z"/><path class="cls-2" d="M178.53,158.21c.57,1.6,.96,3.11,1.21,4.47l14.67-.36c-.36-4.66-1.1-8.76-2.09-12.36l-13.79,8.25Z"/><path class="cls-2" d="M190.87,145.49c-1.55-4.14-3.44-7.5-5.41-10.2l-11.65,14.03c1.52,2.11,2.69,4.16,3.59,6.11l13.48-9.93Z"/></g><g id="_右腕"><path class="cls-2" d="M5.43,164.62l14.46,.23c-.12,1.35-.12,2.48-.07,3.33,7.96,1.26,14.05,8.16,14.05,16.47,0,.85-.06,1.69-.19,2.51h-9.8c.29-.78,.45-1.63,.45-2.51,0-3.95-3.2-7.15-7.15-7.15s-7.15,3.2-7.15,7.15c0,2.24,1.03,4.24,2.65,5.55h0s-6.9,6.62-6.9,6.62c-3.25-3.04-5.28-7.37-5.28-12.17s1.89-8.83,4.95-11.85c-.13-2.89-.13-5.61-.02-8.17Z"/><path class="cls-2" d="M18.06,130.65c4.76-4.81,9.04-6.26,9.04-6.26l6.88,16.12c-1.91,1.62-3.56,3.25-4.99,4.86l-10.92-14.72Z"/><path class="cls-2" d="M21.47,157.72c-.57,1.6-.96,3.11-1.21,4.47l-14.67-.36c.36-4.66,1.1-8.76,2.09-12.36l13.79,8.25Z"/><path class="cls-2" d="M9.13,145c1.55-4.14,3.44-7.5,5.41-10.2l11.65,14.03c-1.52,2.11-2.69,4.16-3.59,6.11l-13.48-9.93Z"/></g></g></g></svg>